<?xml version="1.0" encoding="UTF-8"?>
<svg version="1.1" xmlns="http://www.w3.org/2000/svg" width="1024" height="1024" viewBox="302 302 420 420">
<path d="M0 0 C337.92 0 675.84 0 1024 0 C1024 337.92 1024 675.84 1024 1024 C686.08 1024 348.16 1024 0 1024 C0 686.08 0 348.16 0 0 Z " fill="#FDFDFD" transform="translate(0,0)"/>
<path d="M0 0 C39.6 0 79.2 0 120 0 C118.97029703 5.14851485 118.97029703 5.14851485 116 8 C114.80972016 10.59915538 114.80972016 10.59915538 114 13 C113.34 13 112.68 13 112 13 C111.731875 13.86625 111.46375 14.7325 111.1875 15.625 C110.02888013 18.91791964 108.61790161 21.91127875 107 25 C106.34 25 105.68 25 105 25 C104.34 26.98 103.68 28.96 103 31 C86.83 31 70.66 31 54 31 C58.49371744 39.29829927 58.49371744 39.29829927 63.18359375 47.46484375 C63.98108032 48.8091748 63.98108032 48.8091748 64.79467773 50.18066406 C65.33680908 51.09041992 65.87894043 52.00017578 66.4375 52.9375 C67.58359022 54.86833713 68.72942587 56.79932538 69.875 58.73046875 C70.41640625 59.64231934 70.9578125 60.55416992 71.515625 61.49365234 C73.86915378 65.46755471 76.1907549 69.45949039 78.50390625 73.45703125 C79.55200139 75.23851934 80.62451206 77.00576316 81.71484375 78.76171875 C82.26269531 79.64472656 82.81054688 80.52773438 83.375 81.4375 C83.85710937 82.19933594 84.33921875 82.96117187 84.8359375 83.74609375 C86.08764837 86.16970841 86.59260485 88.31403432 87 91 C87.66 91 88.32 91 89 91 C89.83819158 92.62249941 90.6704116 94.24808497 91.5 95.875 C92.19609375 97.23238281 92.19609375 97.23238281 92.90625 98.6171875 C94 101 94 101 94 103 C94.66 103 95.32 103 96 103 C100 109.625 100 109.625 100 113 C100.66 113 101.32 113 102 113 C102.32871094 113.62003906 102.65742188 114.24007812 102.99609375 114.87890625 C108.22377696 124.61174734 113.861415 134.09554643 119.80078125 143.41015625 C120.26129883 144.13501221 120.72181641 144.85986816 121.19628906 145.60668945 C122.09178271 147.01153912 122.99327838 148.41258491 123.90136719 149.80932617 C127 154.66865786 127 154.66865786 127 158 C127.66 158 128.32 158 129 158 C129.268125 157.28457031 129.53625 156.56914063 129.8125 155.83203125 C131.01731307 152.95871061 132.41237112 150.36662374 134 147.6875 C134.515625 146.80449219 135.03125 145.92148437 135.5625 145.01171875 C136.036875 144.34785156 136.51125 143.68398438 137 143 C137.66 143 138.32 143 139 143 C139.11408203 141.72769531 139.11408203 141.72769531 139.23046875 140.4296875 C140.14103861 136.37141169 141.9870024 133.48893899 144.3125 130.125 C147.59619096 125.21535343 150.52551575 120.37931359 153 115 C153.66 115 154.32 115 155 115 C155.0825 114.113125 155.165 113.22625 155.25 112.3125 C156.10988035 108.51469512 157.46792815 106.90443535 160 104 C161.00568242 102.33675599 162.00664799 100.67063747 163 99 C163.66 98.34 164.32 97.68 165 97 C165.391875 95.865625 165.78375 94.73125 166.1875 93.5625 C167.81683887 89.03745492 170.2638652 85.3382452 172.8984375 81.3359375 C176.83508302 75.08706152 180.29482823 68.56134544 183.84521484 62.08789062 C185.53112553 59.03970707 187.2627683 56.01918889 189 53 C189.66 53 190.32 53 191 53 C191.103125 52.278125 191.20625 51.55625 191.3125 50.8125 C192.06793947 47.72206579 193.15531315 45.58256159 195 43 C195.66 43 196.32 43 197 43 C197.11214844 42.27425781 197.22429687 41.54851562 197.33984375 40.80078125 C198.02961387 37.87436007 199.05510814 35.77712191 200.5625 33.1875 C201.01753906 32.39730469 201.47257813 31.60710937 201.94140625 30.79296875 C202.46541016 29.90544922 202.46541016 29.90544922 203 29 C203.66 29 204.32 29 205 29 C205.20625 28.05125 205.4125 27.1025 205.625 26.125 C207.86055953 18.31628501 213.23240193 11.51692004 217.80078125 4.91015625 C219.16136602 2.91024048 219.16136602 2.91024048 220 0 C271.15 0 322.3 0 375 0 C374.67 1.65 374.34 3.3 374 5 C373.34 5 372.68 5 372 5 C371.67 6.32 371.34 7.64 371 9 C370.34 9 369.68 9 369 9 C368.91621094 9.515625 368.83242188 10.03125 368.74609375 10.5625 C367.69586619 13.99360993 365.87719219 16.92947659 364.0625 20 C361.94180327 23.62680873 359.88063594 27.23872813 358 31 C298.105 31.495 298.105 31.495 237 32 C235.02 35.63 233.04 39.26 231 43 C229.06563879 46.44606295 227.12301163 49.88683083 225.16992188 53.32226562 C222.99725801 57.16329267 220.93751328 61.0327109 219 65 C218.34 65 217.68 65 217 65 C216.74863281 65.86238281 216.49726562 66.72476563 216.23828125 67.61328125 C214.93021223 71.19087064 213.26017735 73.99724136 211.1875 77.1875 C207.54762317 82.89842696 204.60459953 88.75146556 202 95 C201.34 95 200.68 95 200 95 C199.59587891 96.08667969 199.59587891 96.08667969 199.18359375 97.1953125 C198.0180171 99.95730602 196.65452168 102.33910796 195.0625 104.875 C192.64263797 108.82724409 190.68696294 112.68887249 189 117 C188.34 117 187.68 117 187 117 C187 118.32 187 119.64 187 121 C186.34 121 185.68 121 185 121 C183.4545241 124.01367801 182.09522613 127.08002765 180.75 130.1875 C178.76661429 134.56939866 176.50759195 138.38999947 173.7578125 142.3203125 C169.81817705 148.32606787 166.47015633 154.71516132 163 161 C162.34 161 161.68 161 161 161 C160.88398438 161.54527344 160.76796875 162.09054687 160.6484375 162.65234375 C159.88188 165.42765134 158.80424539 167.9359989 157.625 170.5625 C156.99464844 171.98755859 156.99464844 171.98755859 156.3515625 173.44140625 C155.0812748 175.84614164 153.92282703 177.1426095 152 179 C151.117157 180.471405 150.29043856 181.97695984 149.5 183.5 C146.5680113 189.00300391 143.49666934 194.41487254 140.375 199.8125 C139.90771484 200.62460937 139.44042969 201.43671875 138.95898438 202.2734375 C136.96183928 205.72227696 134.95361428 209.13009136 132.7109375 212.42578125 C131.17721031 214.73337536 130.41629081 216.29410973 130 219 C129.01 219 128.02 219 127 219 C126.76667969 218.48695313 126.53335938 217.97390625 126.29296875 217.4453125 C122.9083093 210.34111563 118.84466695 203.72277769 114.65893555 197.07080078 C114.1875415 196.31524902 113.71614746 195.55969727 113.23046875 194.78125 C112.80145264 194.10126953 112.37243652 193.42128906 111.93041992 192.72070312 C111 191 111 191 111 189 C110.34 189 109.68 189 109 189 C108.55269531 188.0821875 108.10539062 187.164375 107.64453125 186.21875 C103.66135461 178.06554302 103.66135461 178.06554302 99.0625 170.25 C97 167 97 167 97 165 C96.34 165 95.68 165 95 165 C94.32845067 163.71086513 93.66291141 162.41859796 93 161.125 C92.62875 160.40570312 92.2575 159.68640625 91.875 158.9453125 C91 157 91 157 91 155 C90.34 155 89.68 155 89 155 C88.566875 153.9275 88.13375 152.855 87.6875 151.75 C86.71311773 149.44860188 85.82754265 147.77005686 84.3125 145.75 C83 144 83 144 83 141 C82.34 141 81.68 141 81 141 C80.64808594 140.26136719 80.29617188 139.52273438 79.93359375 138.76171875 C75.95051298 130.57716376 71.76160183 122.36638234 65.7890625 115.43359375 C64 113 64 113 64 109 C63.34 109 62.68 109 62 109 C61.54109375 108.04738281 61.0821875 107.09476562 60.609375 106.11328125 C59.98991026 104.84619428 59.37010019 103.5792761 58.75 102.3125 C58.44964844 101.68666016 58.14929688 101.06082031 57.83984375 100.41601562 C55.92525744 96.52573918 53.72827769 93.39144114 51 90 C50.649375 88.7625 50.29875 87.525 49.9375 86.25 C49.628125 85.1775 49.31875 84.105 49 83 C48.01 82.67 47.02 82.34 46 82 C45.2739188 80.37637235 44.55930104 78.74641337 43.91064453 77.09033203 C41.824788 72.3023686 38.73745481 67.97980188 35.93945312 63.58398438 C33.36688636 59.47275115 31.27928133 55.73107002 30 51 C29.34 51 28.68 51 28 51 C27.16180842 49.37750059 26.3295884 47.75191503 25.5 46.125 C25.0359375 45.22007812 24.571875 44.31515625 24.09375 43.3828125 C23 41 23 41 23 39 C22.34 39 21.68 39 21 39 C19.07280115 36.23488861 17.79073577 33.49427811 16.5 30.375 C15.30651716 27.11153088 15.30651716 27.11153088 13.51171875 25.58203125 C11.63538354 23.61842464 11.09919604 21.89735842 10.3125 19.3125 C9.93544922 18.10013672 9.93544922 18.10013672 9.55078125 16.86328125 C9.36902344 16.24839844 9.18726563 15.63351562 9 15 C8.34 15 7.68 15 7 15 C6.32845067 13.71086513 5.66291141 12.41859796 5 11.125 C4.62875 10.40570313 4.2575 9.68640625 3.875 8.9453125 C3 7 3 7 3 5 C2.34 5 1.68 5 1 5 C0.67 3.35 0.34 1.7 0 0 Z " fill="#050506" transform="translate(325,365)"/>
<path d="M0 0 C2.69540315 -0.26686213 5.15847464 -0.34818073 7.8515625 -0.29296875 C8.62559418 -0.28872391 9.39962585 -0.28447906 10.19711304 -0.28010559 C12.67342677 -0.26328998 15.14893158 -0.22563395 17.625 -0.1875 C19.30207159 -0.17245682 20.97915592 -0.15876778 22.65625 -0.14648438 C26.77114581 -0.11337721 30.88543569 -0.06157637 35 0 C34.38550003 3.33822957 33.65439171 6.02209492 32 9 C31.34 9 30.68 9 30 9 C29.72414063 9.721875 29.44828125 10.44375 29.1640625 11.1875 C25.7146546 19.5216399 20.71388638 27.14636583 15.95703125 34.77734375 C13.59677572 38.66399208 11.43684677 42.6346616 9.32421875 46.66015625 C8.03820126 48.93249984 6.56449469 50.91548861 5 53 C4.29485154 55.14733927 4.29485154 55.14733927 4 57 C3.34 57 2.68 57 2 57 C1.63648438 57.99966797 1.63648438 57.99966797 1.265625 59.01953125 C-0.31415057 62.7398052 -2.24970275 66.1798285 -4.25 69.6875 C-4.64968994 70.39430908 -5.04937988 71.10111816 -5.46118164 71.8293457 C-8.15344609 76.57151925 -10.92334875 81.25881864 -13.80859375 85.88671875 C-15.10729794 88.19032192 -16.06903132 90.52752039 -17 93 C-17.66 93 -18.32 93 -19 93 C-19.21398437 93.7940625 -19.42796875 94.588125 -19.6484375 95.40625 C-21.42953804 100.14212427 -23.97285202 104.20585201 -26.625 108.5 C-27.71471015 110.28835102 -28.80324769 112.07741708 -29.890625 113.8671875 C-30.42236328 114.74084961 -30.95410156 115.61451172 -31.50195312 116.51464844 C-33.51484328 119.85415654 -35.45662792 123.2305525 -37.375 126.625 C-39.5029149 130.37937445 -41.6465123 134.11692457 -43.875 137.8125 C-46.65911568 142.42968359 -49.43292371 147.05263462 -52.1875 151.6875 C-52.83017822 152.75738159 -52.83017822 152.75738159 -53.48583984 153.84887695 C-56.02210438 158.12888554 -58.14247736 162.38342093 -60 167 C-60.66 167 -61.32 167 -62 167 C-62.24621094 167.68964844 -62.49242187 168.37929688 -62.74609375 169.08984375 C-64.46916336 173.08886824 -66.80803879 176.61975034 -69.16601562 180.27148438 C-70.97601336 183.13201684 -72.46413951 185.62820094 -73 189 C-73.66 189 -74.32 189 -75 189 C-76.07525194 191.65228812 -77.09456151 194.28368454 -78 197 C-78.66 197 -79.32 197 -80 197 C-80.12076904 197.5765332 -80.24153809 198.15306641 -80.3659668 198.74707031 C-81.0290524 201.10323279 -81.93562952 202.92257953 -83.14453125 205.046875 C-83.57443359 205.81 -84.00433594 206.573125 -84.44726562 207.359375 C-84.89779297 208.14828125 -85.34832031 208.9371875 -85.8125 209.75 C-89.03676045 215.43151621 -92.12632836 221.13208309 -95 227 C-95.66 227 -96.32 227 -97 227 C-97.28875 227.7425 -97.5775 228.485 -97.875 229.25 C-98.82302644 231.56739797 -99.84845911 233.77917115 -101 236 C-101.66 236 -102.32 236 -103 236 C-103.35191406 235.33355469 -103.70382812 234.66710937 -104.06640625 233.98046875 C-107.28675262 227.96859498 -110.71669939 222.19326894 -114.484375 216.5078125 C-115.96156326 214.06359893 -117.02108013 211.67763377 -118 209 C-118.66 209 -119.32 209 -120 209 C-119.41674973 205.03105306 -118.20607587 202.29035418 -116.125 198.875 C-115.49464844 197.82441406 -114.86429687 196.77382813 -114.21484375 195.69140625 C-113.86276855 195.10762207 -113.51069336 194.52383789 -113.14794922 193.92236328 C-110.95149284 190.24416304 -108.82679112 186.52412699 -106.6875 182.8125 C-104.79377398 179.54044365 -102.89709895 176.27010168 -101 173 C-100.52498047 172.18047852 -100.04996094 171.36095703 -99.56054688 170.51660156 C-98.1896914 168.15484573 -96.81432536 165.79577944 -95.4375 163.4375 C-95.02008545 162.71731689 -94.6026709 161.99713379 -94.17260742 161.25512695 C-92.60761617 158.58272334 -91.19983247 156.19983247 -89 154 C-88.32526435 152.38063445 -87.65212396 150.76058015 -86.98828125 149.13671875 C-85.40123629 145.70543973 -83.38971391 142.54317642 -81.40234375 139.33203125 C-80.15628977 137.25990248 -79.04650543 135.17813332 -78 133 C-77.34 133 -76.68 133 -76 133 C-75.90589844 132.30132813 -75.81179688 131.60265625 -75.71484375 130.8828125 C-74.86010649 127.43583927 -73.3938125 124.9132274 -71.5625 121.875 C-70.94503906 120.84117187 -70.32757812 119.80734375 -69.69140625 118.7421875 C-68.49684655 116.80551104 -67.2621945 114.89329175 -66 113 C-65.34 113 -64.68 113 -64 113 C-63.84217041 112.45545166 -63.68434082 111.91090332 -63.52172852 111.34985352 C-61.6808833 105.39020473 -59.1479533 100.2695629 -55.9375 94.9375 C-55.49083984 94.16728516 -55.04417969 93.39707031 -54.58398438 92.60351562 C-52.10530133 88.42791654 -52.10530133 88.42791654 -51 87 C-50.34 87 -49.68 87 -49 87 C-48.5978125 85.4221875 -48.5978125 85.4221875 -48.1875 83.8125 C-47.12747781 80.40927088 -46.08611696 77.86841082 -44 75 C-43.34 75 -42.68 75 -42 75 C-41.62875 73.4840625 -41.62875 73.4840625 -41.25 71.9375 C-40.10339362 67.86621646 -38.20258527 64.59755594 -36 61 C-35.34 61 -34.68 61 -34 61 C-33.89816406 60.28714844 -33.79632812 59.57429688 -33.69140625 58.83984375 C-32.90807782 55.62244394 -31.6583033 53.38869403 -29.9375 50.5625 C-27.57967898 46.63762002 -25.25181784 42.70595889 -23.00366211 38.71777344 C-19.73573359 32.92119481 -16.29214352 27.2741562 -12.67578125 21.6875 C-9.90395131 17.24223427 -7.44531289 12.63086727 -5 8 C-4.34 8 -3.68 8 -3 8 C-2.814375 6.8553125 -2.814375 6.8553125 -2.625 5.6875 C-2 3 -2 3 0 0 Z " fill="#050507" transform="translate(598,421)"/>
<path d="M0 0 C51.15 0 102.3 0 155 0 C154.67 1.65 154.34 3.3 154 5 C153.34 5 152.68 5 152 5 C152 4.01 152 3.02 152 2 C102.17 2 52.34 2 1 2 C1 2.66 1 3.32 1 4 C0.34 3.67 -0.32 3.34 -1 3 C-0.67 2.01 -0.34 1.02 0 0 Z " fill="#545455" transform="translate(545,365)"/>
<path d="M0 0 C11.55 0 23.1 0 35 0 C34.67 0.99 34.34 1.98 34 3 C34 2.34 34 1.68 34 1 C29.49746184 1.11829766 24.99514221 1.24254934 20.49291992 1.37231445 C18.96138982 1.41561833 17.42981285 1.45729667 15.89819336 1.49731445 C13.69630818 1.55512732 11.49465789 1.61878969 9.29296875 1.68359375 C8.60849167 1.70030624 7.92401459 1.71701874 7.21879578 1.73423767 C4.22879896 1.8273555 1.85937689 2.04687437 -1 3 C-0.67 2.01 -0.34 1.02 0 0 Z " fill="#4A4A4B" transform="translate(598,421)"/>
<path d="M0 0 C0 3 0 3 -1 5 C-0.34 5 0.32 5 1 5 C0.67 6.65 0.34 8.3 0 10 C-1.65 10 -3.3 10 -5 10 C-5.12375 10.639375 -5.2475 11.27875 -5.375 11.9375 C-5.58125 12.618125 -5.7875 13.29875 -6 14 C-6.99 14.495 -6.99 14.495 -8 15 C-6.94124926 11.59687262 -5.99097846 8.98646769 -4 6 C-3.34 6 -2.68 6 -2 6 C-1.855625 5.195625 -1.71125 4.39125 -1.5625 3.5625 C-1 1 -1 1 0 0 Z " fill="#C6C6C7" transform="translate(583,508)"/>
<path d="M0 0 C1.15155977 3.45467931 1.50630022 5.8608245 0 9.25 C-0.33 9.8275 -0.66 10.405 -1 11 C-2.65 11 -4.3 11 -6 11 C-5.01 9.02 -4.02 7.04 -3 5 C-2.34 5 -1.68 5 -1 5 C-0.67 3.35 -0.34 1.7 0 0 Z " fill="#CACACB" transform="translate(526,605)"/>
<path d="M0 0 C1.5625 1.25 1.5625 1.25 3 3 C2.72963853 5.97397616 2.14553974 6.85446026 0 9 C-1.32 9 -2.64 9 -4 9 C-2.80100302 5.9168649 -1.52299523 2.93720508 0 0 Z " fill="#D6D6D6" transform="translate(468,558)"/>
<path d="M0 0 C0.33 0.66 0.66 1.32 1 2 C1.66 2 2.32 2 3 2 C2.25 3.9375 2.25 3.9375 1 6 C-1.125 6.75 -1.125 6.75 -3 7 C-3.12375 7.639375 -3.2475 8.27875 -3.375 8.9375 C-3.58125 9.618125 -3.7875 10.29875 -4 11 C-4.99 11.495 -4.99 11.495 -6 12 C-4.68139111 7.38486888 -2.78644563 3.90102388 0 0 Z " fill="#BFBFC0" transform="translate(554,410)"/>
<path d="M0 0 C0.33 0.66 0.66 1.32 1 2 C1.66 2 2.32 2 3 2 C3 2.66 3 3.32 3 4 C2.34 4 1.68 4 1 4 C0.7525 4.61875 0.505 5.2375 0.25 5.875 C-1.20628639 8.35068687 -2.37812506 8.95125002 -5 10 C-4.67 8.68 -4.34 7.36 -4 6 C-3.34 6 -2.68 6 -2 6 C-1.855625 5.195625 -1.71125 4.39125 -1.5625 3.5625 C-1 1 -1 1 0 0 Z " fill="#D6D6D7" transform="translate(604,472)"/>
<path d="M0 0 C0.33 0.66 0.66 1.32 1 2 C0.09589876 4.6301127 -0.58720182 5.75490108 -3 7.1875 C-3.66 7.455625 -4.32 7.72375 -5 8 C-5.99 8.495 -5.99 8.495 -7 9 C-6.07506212 5.21616321 -5.60628829 3.43306306 -2.375 1.125 C-1.199375 0.568125 -1.199375 0.568125 0 0 Z " fill="#D5D5D5" transform="translate(621,447)"/>
<path d="M0 0 C1.65 0.33 3.3 0.66 5 1 C1.55384615 5.8 1.55384615 5.8 -1.25 6.8125 C-2.11625 6.9053125 -2.11625 6.9053125 -3 7 C-1.125 2.25 -1.125 2.25 0 0 Z " fill="#DCDCDC" transform="translate(628,430)"/>
<path d="M0 0 C0.33 0.66 0.66 1.32 1 2 C1.66 2 2.32 2 3 2 C3 2.66 3 3.32 3 4 C2.4225 4.2475 1.845 4.495 1.25 4.75 C-1.3002997 6.16683317 -3.01785701 7.87627537 -5 10 C-3.84414715 6.08788267 -2.64465038 3.1254959 0 0 Z " fill="#C2C2C2" transform="translate(548,568)"/>
<path d="M0 0 C0.66 0.33 1.32 0.66 2 1 C1.67 1.66 1.34 2.32 1 3 C1.33 3.66 1.66 4.32 2 5 C1.360625 5.28875 0.72125 5.5775 0.0625 5.875 C-2.15206079 6.82823451 -2.15206079 6.82823451 -3 9 C-3.66 9 -4.32 9 -5 9 C-3.90931332 5.22454612 -3.0916909 2.52956528 0 0 Z " fill="#C7C7C7" transform="translate(501,503)"/>
<path d="M0 0 C0 0.99 0 1.98 0 3 C0.3062434 4.33981486 0.63451555 5.67511887 1 7 C-2.75 10 -2.75 10 -5 10 C-5 9.34 -5 8.68 -5 8 C-4.34 8 -3.68 8 -3 8 C-2.87625 7.05125 -2.7525 6.1025 -2.625 5.125 C-2 2 -2 2 0 0 Z " fill="#3D3D3F" transform="translate(483,472)"/>
<path d="M0 0 C1.6415049 3.2830098 0.51888624 6.42545033 0 10 C-1.32 9.67 -2.64 9.34 -4 9 C-2.94124926 5.59687262 -1.99097846 2.98646769 0 0 Z " fill="#C5C5C5" transform="translate(463,567)"/>
<path d="M0 0 C0.99 0.66 1.98 1.32 3 2 C2.67 3.32 2.34 4.64 2 6 C1.34 6 0.68 6 0 6 C-0.33 6.66 -0.66 7.32 -1 8 C-1.625 5.6875 -1.625 5.6875 -2 3 C-1.34 2.01 -0.68 1.02 0 0 Z " fill="#DCDCDD" transform="translate(532,528)"/>
<path d="M0 0 C1.09658936 3.28976808 0.79953138 4.71303767 0 8 C-1.32 8.33 -2.64 8.66 -4 9 C-2.94124926 5.59687262 -1.99097846 2.98646769 0 0 Z " fill="#BFBFC1" transform="translate(492,517)"/>
<path d="M0 0 C0.66 1.32 1.32 2.64 2 4 C0.35 5.65 -1.3 7.3 -3 9 C-3.66 8.67 -4.32 8.34 -5 8 C-3.35 5.36 -1.7 2.72 0 0 Z " fill="#CCCCCC" transform="translate(693,377)"/>
<path d="M0 0 C0.33 0.66 0.66 1.32 1 2 C1.66 2 2.32 2 3 2 C3 2.66 3 3.32 3 4 C2.360625 4.28875 1.72125 4.5775 1.0625 4.875 C-1.15206079 5.82823451 -1.15206079 5.82823451 -2 8 C-2.66 8 -3.32 8 -4 8 C-2.87548273 5.0280615 -1.77706209 2.66559313 0 0 Z " fill="#404042" transform="translate(468,498)"/>
<path d="M0 0 C0.99 0 1.98 0 3 0 C2.25 4.75 2.25 4.75 0 7 C0 6.34 0 5.68 0 5 C-0.66 5 -1.32 5 -2 5 C-1.34 3.35 -0.68 1.7 0 0 Z " fill="#EFEFF0" transform="translate(483,465)"/>
<path d="M0 0 C0.33 0.66 0.66 1.32 1 2 C0.1875 4.375 0.1875 4.375 -1 7 C-1.33 7.7425 -1.66 8.485 -2 9.25 C-3 11 -3 11 -5 12 C-3.85814266 7.52040582 -2.56984833 3.85477249 0 0 Z " fill="#CDCDCD" transform="translate(532,448)"/>
<path d="M0 0 C0.33 0.66 0.66 1.32 1 2 C-0.25 5.5625 -0.25 5.5625 -2 9 C-2.99 9.33 -3.98 9.66 -5 10 C-5 9.34 -5 8.68 -5 8 C-4.34 8 -3.68 8 -3 8 C-2.87625 7.236875 -2.7525 6.47375 -2.625 5.6875 C-2 3 -2 3 0 0 Z " fill="#4D4D4E" transform="translate(519,410)"/>
<path d="M0 0 C0.99 0.33 1.98 0.66 3 1 C3 1.66 3 2.32 3 3 C2.34 3 1.68 3 1 3 C1 3.99 1 4.98 1 6 C-0.32 6.33 -1.64 6.66 -3 7 C-1.125 2.25 -1.125 2.25 0 0 Z " fill="#D2D2D2" transform="translate(571,528)"/>
<path d="M0 0 C0.99 0.33 1.98 0.66 3 1 C1.70700306 3.88437779 0.34058637 5.87219421 -2 8 C-2.66 7.67 -3.32 7.34 -4 7 C-2.68 4.69 -1.36 2.38 0 0 Z " fill="#D0D0D0" transform="translate(540,434)"/>
<path d="M0 0 C2 3 2 3 2 5 C0.68 5 -0.64 5 -2 5 C-2 5.99 -2 6.98 -2 8 C-2.66 8 -3.32 8 -4 8 C-2.87548273 5.0280615 -1.77706209 2.66559313 0 0 Z " fill="#B4B4B4" transform="translate(598,482)"/>
<path d="M0 0 C0.66 0.99 1.32 1.98 2 3 C1.38125 3.5775 0.7625 4.155 0.125 4.75 C-1.81347053 6.80249821 -2.90014249 8.43366582 -4 11 C-4.33 10.34 -4.66 9.68 -5 9 C-4.00390625 6.8359375 -4.00390625 6.8359375 -2.5625 4.375 C-2.08941406 3.55773437 -1.61632812 2.74046875 -1.12890625 1.8984375 C-0.75636719 1.27195312 -0.38382813 0.64546875 0 0 Z " fill="#AFAFB0" transform="translate(525,460)"/>
<path d="M0 0 C0.33 0.66 0.66 1.32 1 2 C1.66 2.33 2.32 2.66 3 3 C2.01 4.485 2.01 4.485 1 6 C-0.32 6 -1.64 6 -3 6 C-1.125 1.125 -1.125 1.125 0 0 Z " fill="#C7C7C7" transform="translate(458,576)"/>
<path d="M0 0 C0.66 0.99 1.32 1.98 2 3 C0.71937515 4.7074998 -0.61767557 6.37373596 -2 8 C-2.66 8 -3.32 8 -4 8 C-3.67 6.68 -3.34 5.36 -3 4 C-2.34 4 -1.68 4 -1 4 C-0.67 2.68 -0.34 1.36 0 0 Z " fill="#BCBCBC" transform="translate(545,426)"/>
</svg>
